<svg xmlns="http://www.w3.org/2000/svg" xmlns:xlink="http://www.w3.org/1999/xlink" width="24" height="24" viewBox="0 0 24 24">
    <defs>
        <path id="we815d7g8a" d="M18.41 2.44c-.5-.503-1.082-.9-1.728-1.176C15.519.77 14.19.7 12.984 1.068c-.495.152-.964.374-1.396.66-.425.281-.809.622-1.144 1.015-.162.191-.31.392-.444.601-.134-.209-.283-.41-.444-.6-.333-.392-.718-.732-1.143-1.014-.433-.288-.902-.51-1.397-.66C5.809.7 4.48.77 3.318 1.264c-.646.276-1.227.672-1.726 1.175C1.093 2.943.7 3.53.427 4.183.145 4.857 0 5.574 0 6.338.004 7.364.374 8.4 1.094 9.36l8.594 9.667c.08.089.193.14.312.14.12 0 .232-.051.312-.14l8.616-9.694C19.626 8.4 19.996 7.365 20 6.316c0-.742-.144-1.46-.427-2.133-.274-.654-.666-1.24-1.164-1.743z"/>
    </defs>
    <g fill="none" fill-rule="evenodd">
        <g>
            <g>
                <g>
                    <g>
                        <g transform="translate(-454 -5784) translate(80 5570) translate(0 212) translate(374 2) translate(2 2)">
                            <use fill="#FF424E" xlink:href="#we815d7g8a"/>
                        </g>
                    </g>
                </g>
            </g>
        </g>
    </g>
</svg>
